<svg width="33" height="33" viewBox="0 0 33 33" fill="none" xmlns="http://www.w3.org/2000/svg">
<path fill-rule="evenodd" clip-rule="evenodd" d="M11.0066 21.1754C14.87 25.0387 18.4583 27.1921 21.1283 28.3887C23.46 29.4337 26.2116 28.6137 28.3566 26.4687L28.8466 25.9771L22.9533 22.2271C21.8333 23.8604 19.715 24.8187 17.6 23.9271C15.9983 23.2504 13.8783 22.0937 11.9833 20.1987C10.0883 18.3037 8.93329 16.1837 8.25663 14.5821C7.36329 12.4671 8.31996 10.3487 9.95496 9.22875L6.20496 3.33542L5.71329 3.82542C3.56829 5.97042 2.74996 8.72208 3.79329 11.0537C4.98996 13.7237 7.14329 17.3121 11.0066 21.1754ZM19.7666 31.4304C16.7416 30.0754 12.8133 27.6954 8.64996 23.5321C4.48663 19.3704 2.10663 15.4404 0.74996 12.4154C-1.04171 8.41541 0.59496 4.23208 3.35663 1.46875L3.84663 0.977083C4.19953 0.623945 4.62726 0.35459 5.09821 0.188908C5.56917 0.023226 6.07132 -0.0345507 6.5676 0.0198446C7.06388 0.0742398 7.5416 0.239418 7.96548 0.50318C8.38937 0.766943 8.74859 1.12255 9.01663 1.54375L13.7333 8.96042C13.8582 9.15715 13.9405 9.3779 13.9748 9.6084C14.0091 9.83891 13.9947 10.074 13.9325 10.2986C13.8703 10.5232 13.7617 10.7323 13.6137 10.9123C13.4657 11.0923 13.2816 11.2393 13.0733 11.3437L12.0183 11.8721C11.2983 12.2321 11.1516 12.8671 11.3266 13.2854C11.8916 14.6237 12.8366 16.3371 14.34 17.8421C15.845 19.3454 17.5583 20.2904 18.8966 20.8554C19.315 21.0321 19.95 20.8837 20.31 20.1637L20.8383 19.1087C20.9426 18.9003 21.0895 18.716 21.2694 18.5678C21.4494 18.4197 21.6584 18.3109 21.883 18.2485C22.1076 18.1862 22.3428 18.1716 22.5734 18.2058C22.8039 18.24 23.0248 18.3222 23.2216 18.4471L30.6383 23.1654C31.0595 23.4334 31.4151 23.7927 31.6789 24.2166C31.9426 24.6404 32.1078 25.1182 32.1622 25.6144C32.2166 26.1107 32.1588 26.6129 31.9931 27.0838C31.8275 27.5548 31.5581 27.9825 31.205 28.3354L30.7133 28.8254C27.9516 31.5887 23.7683 33.2237 19.7666 31.4304Z" fill="#D20105" fill-opacity="0.88"/>
</svg>
