<svg width="34" height="34" viewBox="0 0 34 34" fill="none" xmlns="http://www.w3.org/2000/svg">
<path fill-rule="evenodd" clip-rule="evenodd" d="M17 3.66683C15.0061 3.6678 13.0379 4.11594 11.2401 4.97824C9.44236 5.84054 7.86089 7.09505 6.61213 8.64942C5.36336 10.2038 4.4791 12.0184 4.02444 13.9598C3.56978 15.9011 3.5563 17.9197 3.98499 19.8669C4.41368 21.8141 5.27363 23.6404 6.50153 25.2113C7.72942 26.7822 9.294 28.0578 11.0801 28.944C12.8661 29.8302 14.8282 30.3046 16.8219 30.3322C18.8156 30.3598 20.7901 29.9399 22.6 29.1035C23.0011 28.9174 23.4598 28.8983 23.875 29.0503C24.2902 29.2024 24.6281 29.5132 24.8141 29.9143C25.0002 30.3155 25.0194 30.7741 24.8673 31.1893C24.7152 31.6046 24.4045 31.9424 24.0033 32.1285C21.8087 33.145 19.4186 33.6701 17 33.6668C7.79498 33.6668 0.333313 26.2052 0.333313 17.0002C0.333313 7.79516 7.79498 0.333496 17 0.333496C26.205 0.333496 33.6666 7.79516 33.6666 17.0002V17.0318C33.5966 20.6818 32.4333 23.1402 30.7216 24.6652C29.0483 26.1552 27.0666 26.5618 25.6833 26.5618C23.6966 26.5618 21.9516 25.5285 20.9533 23.9718C17.4933 27.0302 12.5033 27.7035 9.42331 24.2802C6.21331 20.7135 7.10831 14.7585 10.5333 10.9535C13.8466 7.27183 19.8716 5.85016 23.33 10.1102C23.48 9.70708 23.78 9.3776 24.1674 9.19061C24.5547 9.00362 24.9993 8.97361 25.4082 9.10683C25.8172 9.24006 26.1588 9.52622 26.3616 9.90548C26.5645 10.2847 26.6129 10.7277 26.4966 11.1418C25.51 14.6018 24.3466 18.0302 23.475 21.5202C23.6022 22.0091 23.888 22.442 24.2876 22.7512C24.6872 23.0603 25.1781 23.2282 25.6833 23.2285C26.4833 23.2285 27.5966 22.9852 28.505 22.1768C29.3716 21.4052 30.275 19.9202 30.3333 16.9852C30.3293 13.4515 28.9228 10.064 26.4228 7.56677C23.9227 5.06953 20.5336 3.66683 17 3.66683ZM20.9216 18.5235C21.0383 18.1235 21.3433 17.0552 21.7 15.8102C22.0883 14.4435 21.5833 13.1335 20.52 11.9502C18.9866 10.2485 15.7 10.1952 13.0116 13.1835C10.3066 16.1868 10.2083 20.1685 11.9016 22.0502C13.4333 23.7518 16.72 23.8052 19.41 20.8168C20.0316 20.1268 20.6166 19.4102 20.9216 18.5235Z" fill="#D20105" fill-opacity="0.8"/>
</svg>
