<svg width="30" height="35" viewBox="0 0 30 35" fill="none" xmlns="http://www.w3.org/2000/svg">
<path fill-rule="evenodd" clip-rule="evenodd" d="M7.08335 14.6668C7.08335 10.2946 10.6278 6.75016 15 6.75016C19.3723 6.75016 22.9167 10.2946 22.9167 14.6668C22.9167 19.0391 19.3723 22.5835 15 22.5835C10.6278 22.5835 7.08335 19.0391 7.08335 14.6668ZM15 9.25016C12.0085 9.25016 9.58335 11.6753 9.58335 14.6668C9.58335 17.6584 12.0085 20.0835 15 20.0835C17.9916 20.0835 20.4167 17.6584 20.4167 14.6668C20.4167 11.6753 17.9916 9.25016 15 9.25016Z" fill="#D20105" fill-opacity="0.88"/>
<path fill-rule="evenodd" clip-rule="evenodd" d="M0.87396 12.7616C1.46451 5.59723 7.45142 0.0834961 14.6401 0.0834961H15.36C22.5486 0.0834961 28.5355 5.59723 29.1261 12.7616C29.4433 16.6102 28.2545 20.4316 25.8101 23.4211L17.8216 33.1908C16.3633 34.9743 13.6367 34.9743 12.1784 33.1908L4.18996 23.4211C1.74553 20.4317 0.556729 16.6102 0.87396 12.7616ZM14.6401 2.5835C8.75251 2.5835 3.84917 7.09929 3.36551 12.967C3.10149 16.17 4.09089 19.3506 6.12533 21.8386L14.1138 31.6083C14.5718 32.1684 15.4282 32.1684 15.8863 31.6083L23.8747 21.8386C25.9091 19.3505 26.8986 16.17 26.6345 12.967C26.1509 7.09929 21.2475 2.5835 15.36 2.5835H14.6401Z" fill="#D20105" fill-opacity="0.88"/>
</svg>
