<svg width="146" height="146" viewBox="0 0 146 146" fill="none" xmlns="http://www.w3.org/2000/svg">
<path d="M73.0007 62.5833C76.4524 62.5833 79.2507 65.3816 79.2507 68.8333V110.5C79.2507 113.952 76.4524 116.75 73.0007 116.75C69.5489 116.75 66.7507 113.952 66.7507 110.5V68.8333C66.7507 65.3816 69.5489 62.5833 73.0007 62.5833Z" fill="white"/>
<path d="M73.0007 48C77.603 48 81.334 44.269 81.334 39.6667C81.334 35.0643 77.603 31.3333 73.0007 31.3333C68.3983 31.3333 64.6673 35.0643 64.6673 39.6667C64.6673 44.269 68.3983 48 73.0007 48Z" fill="white"/>
<path fill-rule="evenodd" clip-rule="evenodd" d="M0.0839844 73C0.0839844 32.7292 32.7299 0.0833435 73.0007 0.0833435C113.271 0.0833435 145.917 32.7292 145.917 73C145.917 113.271 113.271 145.917 73.0007 145.917C32.7299 145.917 0.0839844 113.271 0.0839844 73ZM73.0007 12.5833C39.6334 12.5833 12.584 39.6328 12.584 73C12.584 106.367 39.6334 133.417 73.0007 133.417C106.368 133.417 133.417 106.367 133.417 73C133.417 39.6328 106.368 12.5833 73.0007 12.5833Z" fill="white"/>
</svg>
