<svg width="166" height="155" viewBox="0 0 166 155" fill="none" xmlns="http://www.w3.org/2000/svg">
<path d="M91.3359 52C91.3359 56.6024 87.6049 60.3334 83.0025 60.3334C78.4002 60.3334 74.6692 56.6024 74.6692 52C74.6692 47.3977 78.4002 43.6667 83.0025 43.6667C87.6049 43.6667 91.3359 47.3977 91.3359 52Z" fill="white"/>
<path d="M83.0025 74.9167C86.4543 74.9167 89.2525 77.7149 89.2525 81.1667V122.833C89.2525 126.285 86.4543 129.083 83.0025 129.083C79.5508 129.083 76.7525 126.285 76.7525 122.833V81.1667C76.7525 77.7149 79.5508 74.9167 83.0025 74.9167Z" fill="white"/>
<path fill-rule="evenodd" clip-rule="evenodd" d="M101.922 10.272C92.8223 -3.04188 73.1824 -3.04194 64.0826 10.272L60.4833 15.5382C37.9329 48.5316 18.5583 83.5868 2.61885 120.234L1.86706 121.963C-3.75006 134.877 4.7363 149.542 18.7325 151.106C61.4461 155.88 104.559 155.88 147.272 151.106C161.268 149.542 169.755 134.877 164.138 121.963L163.386 120.234C147.446 83.5868 128.072 48.5317 105.521 15.5382L101.922 10.272ZM74.4025 17.3254C78.5387 11.2736 87.466 11.2736 91.6022 17.3254L95.2016 22.5916C117.307 54.9334 136.299 89.2962 151.923 125.22L152.675 126.948C154.937 132.148 151.52 138.053 145.884 138.683C104.093 143.354 61.9118 143.354 20.1209 138.683C14.4851 138.053 11.068 132.148 13.3298 126.948L14.0816 125.22C29.7062 89.2963 48.6982 54.9334 70.8032 22.5916L74.4025 17.3254Z" fill="white"/>
</svg>
