<svg width="42" height="41" viewBox="0 0 42 41" fill="none" xmlns="http://www.w3.org/2000/svg">
<g clip-path="url(#clip0_156_435)">
<path d="M21.102 3.77711C26.5548 3.77711 27.2005 3.80103 29.345 3.89669C31.338 3.98438 32.4142 4.31921 33.1317 4.59822C34.0803 4.96493 34.7659 5.41136 35.4754 6.12086C36.1929 6.83834 36.6314 7.51595 36.9981 8.46461C37.2771 9.18209 37.6119 10.2663 37.6996 12.2513C37.7953 14.4037 37.8192 15.0494 37.8192 20.4943C37.8192 25.9471 37.7953 26.5928 37.6996 28.7373C37.6119 30.7302 37.2771 31.8065 36.9981 32.5239C36.6314 33.4726 36.1849 34.1582 35.4754 34.8677C34.7579 35.5852 34.0803 36.0236 33.1317 36.3903C32.4142 36.6693 31.33 37.0042 29.345 37.0918C27.1926 37.1875 26.5468 37.2114 21.102 37.2114C15.6492 37.2114 15.0035 37.1875 12.859 37.0918C10.866 37.0042 9.78983 36.6693 9.07236 36.3903C8.1237 36.0236 7.43811 35.5772 6.72861 34.8677C6.01113 34.1502 5.57267 33.4726 5.20597 32.5239C4.92695 31.8065 4.59213 30.7223 4.50443 28.7373C4.40877 26.5848 4.38486 25.9391 4.38486 20.4943C4.38486 15.0415 4.40877 14.3957 4.50443 12.2513C4.59213 10.2583 4.92695 9.18209 5.20597 8.46461C5.57267 7.51595 6.0191 6.83037 6.72861 6.12086C7.44608 5.40339 8.1237 4.96493 9.07236 4.59822C9.78983 4.31921 10.874 3.98438 12.859 3.89669C15.0035 3.80103 15.6492 3.77711 21.102 3.77711ZM21.102 0.102051C15.5615 0.102051 14.868 0.125967 12.6916 0.22163C10.5232 0.317293 9.0325 0.668058 7.74104 1.17029C6.39378 1.69644 5.2538 2.39 4.12178 3.52998C2.98179 4.662 2.28824 5.80199 1.76209 7.14127C1.25986 8.4407 0.90909 9.92348 0.813427 12.0918C0.717763 14.2762 0.693848 14.9697 0.693848 20.5102C0.693848 26.0507 0.717763 26.7443 0.813427 28.9206C0.90909 31.089 1.25986 32.5797 1.76209 33.8712C2.28824 35.2184 2.98179 36.3584 4.12178 37.4904C5.2538 38.6225 6.39378 39.324 7.73307 39.8422C9.0325 40.3444 10.5153 40.6952 12.6836 40.7908C14.86 40.8865 15.5535 40.9104 21.094 40.9104C26.6345 40.9104 27.3281 40.8865 29.5044 40.7908C31.6728 40.6952 33.1636 40.3444 34.455 39.8422C35.7943 39.324 36.9343 38.6225 38.0663 37.4904C39.1983 36.3584 39.8998 35.2184 40.418 33.8792C40.9203 32.5797 41.271 31.097 41.3667 28.9286C41.4623 26.7522 41.4863 26.0587 41.4863 20.5182C41.4863 14.9777 41.4623 14.2841 41.3667 12.1078C41.271 9.93942 40.9203 8.44867 40.418 7.15722C39.9158 5.80199 39.2222 4.662 38.0822 3.52998C36.9502 2.39797 35.8102 1.69644 34.471 1.17826C33.1715 0.67603 31.6887 0.325265 29.5204 0.229602C27.3361 0.125967 26.6425 0.102051 21.102 0.102051Z" fill="white"/>
<path d="M21.102 10.0273C15.3144 10.0273 10.6189 14.7228 10.6189 20.5104C10.6189 26.2981 15.3144 30.9935 21.102 30.9935C26.8896 30.9935 31.5851 26.2981 31.5851 20.5104C31.5851 14.7228 26.8896 10.0273 21.102 10.0273ZM21.102 27.3105C17.3472 27.3105 14.3019 24.2652 14.3019 20.5104C14.3019 16.7557 17.3472 13.7104 21.102 13.7104C24.8568 13.7104 27.9021 16.7557 27.9021 20.5104C27.9021 24.2652 24.8568 27.3105 21.102 27.3105Z" fill="white"/>
<path d="M34.447 9.61194C34.447 10.9672 33.3469 12.0593 31.9996 12.0593C30.6444 12.0593 29.5522 10.9592 29.5522 9.61194C29.5522 8.25671 30.6524 7.16455 31.9996 7.16455C33.3469 7.16455 34.447 8.26468 34.447 9.61194Z" fill="white"/>
</g>
<defs>
<clipPath id="clip0_156_435">
<rect width="40.8163" height="40.8163" fill="white" transform="translate(0.693848 0.102051)"/>
</clipPath>
</defs>
</svg>
