<svg width="76" height="76" viewBox="0 0 76 76" fill="none" xmlns="http://www.w3.org/2000/svg">
<g filter="url(#filter0_d_84_30)">
<circle cx="38" cy="34" r="34" fill="#10EC26"/>
</g>
<path d="M31.8238 24.4202C32.1867 24.4299 32.589 24.4495 32.9717 25.2992C33.2256 25.8648 33.6531 26.906 34.0014 27.7542C34.2724 28.4142 34.4955 28.9574 34.5513 29.0686C34.6788 29.3224 34.7573 29.6153 34.5905 29.9571C34.5709 29.9974 34.5523 30.0359 34.5344 30.073C34.4006 30.3507 34.3054 30.5483 34.0804 30.8067C33.9879 30.9129 33.8915 31.0293 33.7955 31.1454C33.6267 31.3494 33.4589 31.5521 33.3151 31.6954C33.06 31.9491 32.795 32.2227 33.0893 32.7305C33.3838 33.2382 34.414 34.9081 35.9347 36.2557C37.5696 37.7113 38.9913 38.3247 39.71 38.6347C39.8495 38.6949 39.9625 38.7437 40.0455 38.785C40.5557 39.0388 40.8598 38.9998 41.1541 38.658C41.4486 38.3161 42.4296 37.1736 42.7731 36.6659C43.1067 36.1581 43.45 36.2363 43.921 36.412C44.3919 36.5877 46.9035 37.8181 47.4137 38.072C47.5145 38.1222 47.6088 38.1674 47.6962 38.2094C48.0512 38.3796 48.2925 38.4953 48.3948 38.6678C48.5223 38.8826 48.5223 39.8982 48.1005 41.0895C47.6689 42.2809 45.5888 43.4234 44.6469 43.5113C44.5578 43.5197 44.469 43.5304 44.3777 43.5415C43.5145 43.6459 42.4188 43.7785 38.5149 42.2418C33.7046 40.3502 30.5292 35.6569 29.8873 34.708C29.8366 34.6331 29.8017 34.5815 29.783 34.5565L29.7722 34.5419C29.4801 34.1511 27.6932 31.7601 27.6932 29.2932C27.6932 26.933 28.8559 25.7042 29.3862 25.1437C29.4198 25.1082 29.4509 25.0754 29.4789 25.0451C29.9498 24.5374 30.4993 24.4105 30.8427 24.4105C31.1862 24.4105 31.5295 24.4105 31.8238 24.4202Z" fill="white"/>
<path fill-rule="evenodd" clip-rule="evenodd" d="M18.532 52.5073C18.3697 53.0963 18.9062 53.64 19.4973 53.4856L28.6352 51.0988C31.5197 52.6612 34.7672 53.4912 38.0737 53.4912H38.0834C48.964 53.4912 57.8334 44.6733 57.8334 33.8339C57.8334 28.5802 55.7826 23.6389 52.0545 19.9281C48.3263 16.2174 43.3716 14.1667 38.0833 14.1667C27.2029 14.1667 18.3335 22.9847 18.3335 33.8242C18.3323 37.2725 19.2424 40.6604 20.9727 43.6479L18.532 52.5073ZM23.8408 44.4381C24.0527 43.669 23.9469 42.8472 23.5471 42.1569C22.0791 39.6223 21.3074 36.7479 21.3085 33.8242C21.3085 24.6418 28.8318 17.1417 38.0833 17.1417C42.5852 17.1417 46.7853 18.881 49.9558 22.0366C53.1226 25.1888 54.8584 29.3711 54.8584 33.8339C54.8584 43.0161 47.3351 50.5163 38.0834 50.5163H38.0737C35.2642 50.5163 32.5035 49.8107 30.0521 48.4829C29.3887 48.1235 28.6134 48.0297 27.8834 48.2204L22.4046 49.6514L23.8408 44.4381Z" fill="white"/>
<defs>
<filter id="filter0_d_84_30" x="0" y="0" width="76" height="76" filterUnits="userSpaceOnUse" color-interpolation-filters="sRGB">
<feFlood flood-opacity="0" result="BackgroundImageFix"/>
<feColorMatrix in="SourceAlpha" type="matrix" values="0 0 0 0 0 0 0 0 0 0 0 0 0 0 0 0 0 0 127 0" result="hardAlpha"/>
<feOffset dy="4"/>
<feGaussianBlur stdDeviation="2"/>
<feComposite in2="hardAlpha" operator="out"/>
<feColorMatrix type="matrix" values="0 0 0 0 0 0 0 0 0 0 0 0 0 0 0 0 0 0 0.25 0"/>
<feBlend mode="normal" in2="BackgroundImageFix" result="effect1_dropShadow_84_30"/>
<feBlend mode="normal" in="SourceGraphic" in2="effect1_dropShadow_84_30" result="shape"/>
</filter>
</defs>
</svg>
