<svg width="58" height="59" viewBox="0 0 58 59" fill="none" xmlns="http://www.w3.org/2000/svg">
<path d="M6.68166 18.4784C3.24106 19.4016 0.708008 22.542 0.708008 26.274V35.0783C0.708008 39.5356 4.32136 43.149 8.77866 43.149H16.1156C17.3312 43.149 18.3167 42.1635 18.3167 40.9479V20.4044C18.3167 19.1888 17.3312 18.2033 16.1156 18.2033H11.17C12.4295 10.9545 19.8094 4.99678 29.3221 4.99678C38.8349 4.99678 46.2148 10.9545 47.4743 18.2033H42.5287C41.313 18.2033 40.3276 19.1888 40.3276 20.4044V40.9479C40.3276 42.1635 41.313 43.149 42.5287 43.149H47.4093C46.4156 47.3555 42.6366 50.4859 38.1264 50.4859H34.765C33.8943 48.3348 31.7854 46.8174 29.3221 46.8174C26.0805 46.8174 23.4526 49.4453 23.4526 52.687C23.4526 55.9287 26.0805 58.5566 29.3221 58.5566C31.7854 58.5566 33.8943 57.0392 34.765 54.8881H38.1264C45.1693 54.8881 50.9923 49.6653 51.9336 42.8816C55.389 41.9682 57.9363 38.8208 57.9363 35.0783V26.274C57.9363 22.542 55.4032 19.4016 51.9626 18.4784C50.8431 8.19449 40.8447 0.594604 29.3221 0.594604C17.7996 0.594604 7.80116 8.19449 6.68166 18.4784Z" fill="white" fill-opacity="0.6"/>
</svg>
