<svg width="42" height="49" viewBox="0 0 42 49" fill="none" xmlns="http://www.w3.org/2000/svg">
<g clip-path="url(#clip0_156_436)">
<path d="M41.2448 20.5529C41.2448 9.2129 32.1078 0.0200195 20.8367 0.0200195C9.56554 0.0200195 0.428497 9.2129 0.428497 20.5529C0.428497 30.8013 7.89143 39.296 17.6479 40.8363V26.4882H12.4661V20.5529H17.6479V16.0293C17.6479 10.8832 20.6948 8.04068 25.3564 8.04068C27.5885 8.04068 29.9247 8.44171 29.9247 8.44171V13.4947H27.3513C24.8163 13.4947 24.0254 15.0776 24.0254 16.703V20.5529H29.6855L28.7807 26.4882H24.0254V40.8363C33.7819 39.296 41.2448 30.8013 41.2448 20.5529Z" fill="white"/>
</g>
<defs>
<clipPath id="clip0_156_436">
<rect width="40.8163" height="48.9796" fill="white" transform="translate(0.428497 0.0200195)"/>
</clipPath>
</defs>
</svg>
