<svg width="46" height="46" viewBox="0 0 46 46" fill="none" xmlns="http://www.w3.org/2000/svg">
<path fill-rule="evenodd" clip-rule="evenodd" d="M6.69644 22.9594C6.69644 19.7429 7.65023 16.5987 9.43721 13.9243C11.2242 11.2499 13.7641 9.16547 16.7357 7.93458C19.7073 6.70369 22.9772 6.38163 26.1319 7.00913C29.2866 7.63663 32.1843 9.18551 34.4587 11.4599C36.7331 13.7343 38.282 16.632 38.9095 19.7867C39.537 22.9414 39.2149 26.2113 37.984 29.1829C36.7531 32.1545 34.6687 34.6944 31.9943 36.4814C29.3199 38.2684 26.1757 39.2222 22.9592 39.2222C19.8824 39.2276 16.8678 38.3555 14.2691 36.7081C14.038 36.5619 13.7782 36.4669 13.5072 36.4296C13.2362 36.3923 12.9604 36.4136 12.6984 36.4919L7.18815 38.1354L9.26404 33.2815C9.3847 32.9989 9.43553 32.6914 9.41221 32.385C9.3889 32.0786 9.29214 31.7823 9.13011 31.5213C7.53431 28.951 6.69118 25.9848 6.69644 22.9594ZM22.9592 2.87012C11.8642 2.87012 2.86991 11.8644 2.86991 22.9594C2.86991 26.476 3.77488 29.7859 5.36672 32.6654L2.06633 40.3835C1.92349 40.7178 1.87886 41.086 1.93768 41.4447C1.99649 41.8035 2.15632 42.1381 2.39843 42.4093C2.64055 42.6806 2.95493 42.8772 3.30476 42.9762C3.6546 43.0752 4.02539 43.0725 4.37373 42.9683L12.9834 40.4007C16.0198 42.1408 19.4596 43.0538 22.9592 43.0487C34.0542 43.0487 43.0485 34.0544 43.0485 22.9594C43.0485 11.8644 34.0542 2.87012 22.9592 2.87012ZM27.3463 27.1341L24.8304 28.9058C23.4442 28.1083 22.1713 27.1282 21.0459 25.9919C19.8378 24.7854 18.7931 23.4256 17.9388 21.9473L19.5364 20.5908C19.8692 20.3083 20.0955 19.9206 20.1777 19.4918C20.2598 19.063 20.1928 18.6191 19.9879 18.2336L17.9522 14.4071C17.8167 14.153 17.6256 13.9327 17.3932 13.7627C17.1607 13.5927 16.8929 13.4774 16.6096 13.4254C16.3264 13.3733 16.035 13.3859 15.7573 13.4621C15.4796 13.5383 15.2227 13.6763 15.0057 13.8657L14.4012 14.3918C12.949 15.6584 12.0899 17.74 12.8017 19.8484C13.9468 23.1835 15.8417 26.2114 18.3406 28.6992C21.8093 32.1679 25.3336 33.534 27.3961 34.0659C29.0568 34.4926 30.6276 33.9205 31.7353 33.0174L32.8661 32.0952C33.1045 31.9008 33.2925 31.6518 33.4142 31.3693C33.5358 31.0868 33.5876 30.7791 33.5651 30.4723C33.5426 30.1656 33.4464 29.8687 33.2847 29.607C33.1231 29.3453 32.9007 29.1265 32.6365 28.969L29.426 27.0557C29.1086 26.8663 28.743 26.7729 28.3736 26.7868C28.0042 26.8007 27.6467 26.9214 27.3444 27.1341H27.3463Z" fill="white"/>
</svg>
