<svg width="42" height="41" viewBox="0 0 42 41" fill="none" xmlns="http://www.w3.org/2000/svg">
<g clip-path="url(#clip0_156_437)">
<path d="M40.6953 12.3465C40.6953 12.3465 40.2967 9.53245 39.0691 8.2968C37.5145 6.67052 35.7767 6.66255 34.9795 6.56688C29.2716 6.15234 20.7017 6.15234 20.7017 6.15234H20.6858C20.6858 6.15234 12.1159 6.15234 6.40803 6.56688C5.61084 6.66255 3.87296 6.67052 2.31843 8.2968C1.09075 9.53245 0.700124 12.3465 0.700124 12.3465C0.700124 12.3465 0.285583 15.6549 0.285583 18.9553V22.0484C0.285583 25.3488 0.692152 28.6571 0.692152 28.6571C0.692152 28.6571 1.09075 31.4712 2.31046 32.7069C3.86498 34.3332 5.9058 34.2773 6.8146 34.4527C10.0831 34.7636 20.6937 34.8593 20.6937 34.8593C20.6937 34.8593 29.2716 34.8434 34.9795 34.4368C35.7767 34.3411 37.5145 34.3332 39.0691 32.7069C40.2967 31.4712 40.6953 28.6571 40.6953 28.6571C40.6953 28.6571 41.1019 25.3567 41.1019 22.0484V18.9553C41.1019 15.6549 40.6953 12.3465 40.6953 12.3465ZM16.4766 25.8032V14.3316L27.5018 20.0873L16.4766 25.8032Z" fill="white"/>
</g>
<defs>
<clipPath id="clip0_156_437">
<rect width="40.8163" height="40.8163" fill="white" transform="translate(0.285583 0.102051)"/>
</clipPath>
</defs>
</svg>
