<svg width="92" height="74" viewBox="0 0 92 74" fill="none" xmlns="http://www.w3.org/2000/svg">
<path d="M22.4455 1.53807C38.1187 0.175626 53.8805 0.175624 69.5537 1.53807L77.1049 2.19447C82.1318 2.63145 86.437 5.62979 88.6678 9.91868C88.9532 10.4674 88.7393 11.1317 88.2135 11.4572L56.8837 30.8518C50.1643 35.0114 41.6917 35.0987 34.8882 31.0784L3.34903 12.4416C2.83948 12.1405 2.60559 11.5207 2.83522 10.9752C4.87601 6.12739 9.46416 2.66651 14.8943 2.19448L22.4455 1.53807Z" fill="white"/>
<path d="M2.80956 20.8344C2.02974 20.3736 1.03473 20.8695 0.943827 21.7707C-0.32485 34.3489 -0.0177957 47.0461 1.86499 59.5666C2.85756 66.1672 8.2446 71.2274 14.8943 71.8055L22.4455 72.4619C38.1187 73.8243 53.8806 73.8243 69.5538 72.4619L77.1049 71.8055C83.7546 71.2274 89.1417 66.1672 90.1342 59.5666C92.0719 46.6813 92.3407 33.6087 90.9405 20.6714C90.8423 19.7638 89.8304 19.2771 89.0542 19.7576L60.8313 37.2288C51.7405 42.8565 40.2775 42.9746 31.0727 37.5353L2.80956 20.8344Z" fill="white"/>
</svg>
